<svg width="86" height="93" viewBox="0 0 86 93" fill="none" xmlns="http://www.w3.org/2000/svg">
<g clip-path="url(#clip0)">
<path d="M49.0312 46.4535C50.3714 46.4535 51.3672 45.3679 51.3672 44.1176C51.3672 42.7849 50.2816 41.7817 49.0312 41.7817H19.3154C17.9827 41.7817 16.9795 42.8673 16.9795 44.1176C16.9795 45.4503 18.0651 46.4535 19.3154 46.4535H49.0312ZM58.7718 15.4724L72.3232 1.14234C72.8398 0.708092 73.3639 0.535892 73.9704 0.880293L84.8714 11.4369C85.3057 11.9535 85.388 12.56 84.7816 13.1664L70.9756 27.7585L58.7718 15.4724ZM66.4759 32.3481L52.5052 35.238L54.2721 20.0544L66.4759 32.3481ZM15.1152 10.5011H46.3584L44.0749 15.3302H15.1152C12.5098 15.3302 10.1364 16.4008 8.4069 18.1228C6.67741 19.8448 5.61426 22.2107 5.61426 24.8311V59.0766C5.61426 61.6821 6.6849 64.0629 8.4069 65.7849C10.1289 67.5069 12.5023 68.5776 15.1152 68.5776H17.9004V68.585L18.0576 68.5925C19.3828 68.6824 20.3936 69.8354 20.2962 71.1606L19.3529 84.712L37.3066 73.8484C37.7409 73.4141 38.3398 73.1521 39.0062 73.1521H66.9476C69.5531 73.1521 71.9264 72.089 73.6559 70.3595C75.3779 68.6375 76.4486 66.2566 76.4486 63.6511V38.4724H81.4499V70.4343C81.7119 77.6443 78.7695 81.6947 66.9027 82.1889L42.7572 81.6348L18.2523 92.0193L18.1325 92.1166C17.1217 92.9851 15.6019 92.8653 14.7334 91.8471C14.3066 91.3455 14.1195 90.7315 14.1569 90.1251L15.3174 73.3992H15.1227C11.1846 73.3992 7.59831 71.7895 5.00033 69.1915C2.39486 66.6085 0.785156 63.0222 0.785156 59.0841V24.8311C0.785156 20.893 2.39486 17.3067 4.99284 14.7087C7.58333 12.1108 11.1696 10.5011 15.1152 10.5011ZM60.4489 59.4135C61.7891 59.4135 62.7848 58.3279 62.7848 57.0776C62.7848 55.7374 61.6992 54.7416 60.4489 54.7416H19.3154C17.9827 54.7416 16.9795 55.8272 16.9795 57.0776C16.9795 58.4102 18.0651 59.4135 19.3154 59.4135H60.4489ZM38.512 33.5011C39.8447 33.5011 40.848 32.4154 40.848 31.1651C40.848 29.9148 39.7624 28.8292 38.512 28.8292H19.3154C17.9827 28.8292 16.9795 29.9148 16.9795 31.1651C16.9795 32.4978 18.0651 33.5011 19.3154 33.5011H38.512Z" fill="white"/>
</g>
<defs>
<clipPath id="clip0">
<rect width="84.4307" height="92" fill="white" transform="translate(0.785156 0.701172)"/>
</clipPath>
</defs>
</svg>
