<svg width="92" height="93" viewBox="0 0 92 93" fill="none" xmlns="http://www.w3.org/2000/svg">
<path fill-rule="evenodd" clip-rule="evenodd" d="M71.5562 8.45357C63.9916 3.39902 55.0979 0.701172 46 0.701172C33.8 0.701172 22.0998 5.54759 13.4731 14.1743C4.84641 22.8009 0 34.5012 0 46.7012C0 55.7991 2.69785 64.6927 7.7524 72.2574C12.8069 79.8221 19.9912 85.718 28.3966 89.1996C36.802 92.6813 46.051 93.5922 54.9741 91.8173C63.8973 90.0424 72.0937 85.6613 78.5269 79.2281C84.9601 72.7949 89.3412 64.5984 91.1161 55.6753C92.891 46.7522 91.9801 37.5031 88.4985 29.0977C85.0168 20.6923 79.1209 13.5081 71.5562 8.45357ZM32.2376 40.6739H24.3314C23.8991 40.6758 23.4851 40.8484 23.1794 41.1541C22.8738 41.4597 22.7012 41.8737 22.6992 42.306V63.9808C22.7012 64.4131 22.8738 64.8271 23.1794 65.1328C23.4851 65.4384 23.8991 65.611 24.3314 65.613H32.2376C32.6686 65.6091 33.0807 65.4356 33.3847 65.1301C33.6888 64.8247 33.8604 64.4118 33.8623 63.9808V42.306C33.8623 41.8744 33.6914 41.4604 33.3869 41.1545C33.0824 40.8487 32.6692 40.6758 32.2376 40.6739ZM53.5231 31.0905C53.0514 24.0752 45.9238 20.0622 45.0703 24.4196V30.3867C43.6927 34.9912 40.9674 42.0065 35.7939 43.3767V62.5658C37.5758 64.8119 39.0583 65.5606 41.7835 65.5606H59.0036C59.3612 65.5606 59.69 65.5725 59.996 65.5836C61.5346 65.6395 62.4952 65.6744 63.638 64.0632C64.476 62.745 64.9369 61.2225 64.9707 59.6608C66.7451 57.9838 67.696 55.8575 67.4938 52.4359C69.111 51.4252 69.0212 48.8796 68.4222 46.7084C71.0352 41.7295 67.3366 38.6973 63.1064 38.5251H52.9167C53.4247 36.0814 53.6284 33.5842 53.5231 31.0905Z" fill="#F5F5F5"/>
</svg>
