<svg width="13" height="15" viewBox="0 0 13 15" fill="none" xmlns="http://www.w3.org/2000/svg">
<path fill-rule="evenodd" clip-rule="evenodd" d="M0.747868 1.74253H5.11113V1.0734C5.11113 0.837793 5.30356 0.64502 5.53952 0.64502H7.9485C8.18434 0.64502 8.37689 0.837679 8.37689 1.0734V1.74264H12.6869C12.8343 1.74264 12.9543 1.86307 12.9543 2.01027V3.32209H0.480469V2.01016C0.480469 1.86296 0.600667 1.74253 0.747868 1.74253ZM1.47054 4.01799H12.0572C12.2779 4.01799 12.4783 4.20016 12.4584 4.41948L11.5624 14.2438C11.5426 14.4632 11.3813 14.6449 11.161 14.6449H2.35408C2.13374 14.6449 1.97218 14.4635 1.95259 14.2438L1.06904 4.41948C1.04945 4.19937 1.24963 4.01799 1.47054 4.01799ZM8.35057 5.54388H9.47462V12.9853H8.35057V5.54388ZM3.90664 5.54388H5.03081V12.9853H3.90664V5.54388ZM6.12832 5.54388H7.25272V12.9853H6.12832V5.54388Z" fill="#FF3A44"/>
</svg>
