<svg width="25" height="25" viewBox="0 0 25 25" fill="none" xmlns="http://www.w3.org/2000/svg">
<path d="M11.8711 4.5H4.87109C4.34066 4.5 3.83195 4.71071 3.45688 5.08579C3.08181 5.46086 2.87109 5.96957 2.87109 6.5V20.5C2.87109 21.0304 3.08181 21.5391 3.45688 21.9142C3.83195 22.2893 4.34066 22.5 4.87109 22.5H18.8711C19.4015 22.5 19.9102 22.2893 20.2853 21.9142C20.6604 21.5391 20.8711 21.0304 20.8711 20.5V13.5" stroke="white" stroke-width="2" stroke-linecap="round" stroke-linejoin="round"/>
<path d="M19.3711 3.00023C19.7689 2.6024 20.3085 2.37891 20.8711 2.37891C21.4337 2.37891 21.9733 2.6024 22.3711 3.00023C22.7689 3.39805 22.9924 3.93762 22.9924 4.50023C22.9924 5.06284 22.7689 5.6024 22.3711 6.00023L12.8711 15.5002L8.87109 16.5002L9.87109 12.5002L19.3711 3.00023Z" stroke="white" stroke-width="2" stroke-linecap="round" stroke-linejoin="round"/>
</svg>
